<?xml version="1.0" encoding="UTF-8"?>
<svg width="518px" height="265px" viewBox="0 0 518 265" version="1.1" xmlns="http://www.w3.org/2000/svg" xmlns:xlink="http://www.w3.org/1999/xlink">
    <title>Group 2</title>
    <g id="Welcome" stroke="none" stroke-width="1" fill="none" fill-rule="evenodd">
        <g id="Desktop-HD" transform="translate(-462.000000, -228.000000)">
            <g id="Group-2" transform="translate(462.000000, 232.000000)">
                <ellipse id="Oval" stroke="#0F0905" stroke-width="7" fill-opacity="0.86" fill="#0F0905" cx="259.5" cy="91" rx="114.5" ry="91"></ellipse>
                <polygon id="Path-2" fill="#0F0905" points="0 182 518 182 417.921288 95 98.2254025 95"></polygon>
                <line x1="123.535088" y1="182.460938" x2="71.4649123" y2="240.539062" id="Line" stroke="#0F0905" stroke-width="13" stroke-linecap="square"></line>
                <line x1="444.535088" y1="182.460938" x2="392.464912" y2="240.539062" id="Line" stroke="#0F0905" stroke-width="13" stroke-linecap="square" transform="translate(418.500000, 211.500000) scale(-1, 1) translate(-418.500000, -211.500000) "></line>
                <line x1="259.5" y1="182.462025" x2="259.5" y2="254.537975" id="Line-2" stroke="#0F0905" stroke-width="11" stroke-linecap="square"></line>
                <ellipse id="Oval" fill="#E24328" opacity="0.235351562" transform="translate(86.178891, 140.481818) rotate(2.000000) translate(-86.178891, -140.481818) " cx="86.1788909" cy="140.481818" rx="13.8998324" ry="6.95453981"></ellipse>
                <ellipse id="Oval" fill="#E24328" opacity="0.235351562" transform="translate(168.651163, 149.754545) rotate(1.000000) translate(-168.651163, -149.754545) " cx="168.651163" cy="149.754545" rx="13.8998239" ry="6.95454404"></ellipse>
                <ellipse id="Oval" fill="#E24328" opacity="0.235351562" cx="251" cy="156" rx="14" ry="7"></ellipse>
                <ellipse id="Oval" fill="#E24328" opacity="0.235351562" transform="translate(333.595707, 149.754545) rotate(-1.000000) translate(-333.595707, -149.754545) " cx="333.595707" cy="149.754545" rx="13.8998239" ry="6.95454404"></ellipse>
                <ellipse id="Oval" fill="#E24328" opacity="0.235351562" transform="translate(416.067979, 140.481818) rotate(-2.000000) translate(-416.067979, -140.481818) " cx="416.067979" cy="140.481818" rx="13.8998324" ry="6.95453981"></ellipse>
            </g>
        </g>
    </g>
</svg>